<?xml version="1.0" standalone="no"?><!DOCTYPE svg PUBLIC "-//W3C//DTD SVG 1.1//EN" "http://www.w3.org/Graphics/SVG/1.1/DTD/svg11.dtd"><svg t="1764408714770" class="icon" viewBox="0 0 1026 1024" version="1.1" xmlns="http://www.w3.org/2000/svg" p-id="3056" xmlns:xlink="http://www.w3.org/1999/xlink" width="200.390625" height="200"><path d="M274.403945 742.06735v-61.730567c0-191.594207 155.311342-346.911562 346.895531-346.911562s346.897534 155.319358 346.897534 346.911562v81.605385c0 63.443914-51.43045 114.87236-114.866349 114.87236H139.662779c74.41935 0 134.741166-60.329832 134.741166-134.747178z m0 0" fill="#FF8C42" p-id="3057"></path><path d="M203.006497 444.163507c0 51.907382-42.074176 93.989573-93.989573 93.989573-51.905378 0-93.987569-42.082192-93.98757-93.989573 0-51.913393 42.082192-93.995585 93.98757-93.995585 51.915397 0 93.989573 42.082192 93.989573 93.995585z m0 0M684.18029 244.289127c0 51.907382-42.082192 93.989573-93.98757 93.989574-51.915397 0-93.989573-42.082192-93.989573-93.989574S538.277323 150.301558 590.19272 150.301558c51.905378 0 93.987569 42.082192 93.98757 93.987569z m0 0" fill="#F54432" p-id="3058"></path><path d="M1010.920454 651.239953c0 51.915397-42.082192 93.997589-93.997589 93.997589-51.905378 0-93.987569-42.082192-93.98757-93.997589 0-51.905378 42.082192-93.987569 93.98757-93.987569 51.915397 0 93.997589 42.082192 93.997589 93.987569z m0 0" fill="#DB2A17" p-id="3059"></path><path d="M914.770661 459.663781c-13.400172-8.89337-19.826724-24.846528-16.648516-40.611319 4.829432-23.96681 0.374732-49.785237-14.47427-71.591828-19.999061-29.36335-53.674834-43.827601-86.701339-40.713519-15.826912 1.486904-30.527624-7.530708-37.336923-21.894763-15.093479-31.834176-47.514802-53.855186-85.088188-53.855186-51.99355 0-94.143875 42.154333-94.143875 94.153895 0 51.991546 230.432063 307.15391 282.425612 307.15391 51.999562 0 94.143875-42.152329 94.143875-94.143875 0-32.784031-16.758732-61.644399-42.176376-78.497315z m0 0" fill="#E7896E" p-id="3060"></path><path d="M824.680705 537.089002c-19.506098-10.019569-30.583734-31.663843-25.549903-53.003523 8.149918-34.559499 3.100055-72.227068-17.11142-104.782653-28.836321-46.472767-80.703624-69.90854-131.687202-64.750466-22.37971 2.270434-43.170317-10.889268-50.723068-32.078654-12.925245-36.282865-40.829746-67.0209-79.453182-82.332806-50.833284-20.149354-106.457926-8.095812-144.335907 26.40357-16.852916 15.341965-42.529065 16.688595-60.594348 2.793456-24.828493-19.097299-56.322004-29.97254-90.404571-28.507679-71.489628 3.076008-129.557041 61.423969-132.298396 132.939647-3.019898 78.974247 60.103389 143.945143 138.396306 143.945143 52.893307 0 454.066849 321.149245 530.56025 321.149245s138.504517-62.011115 138.504517-138.510529c0-53.724932-30.589746-100.299898-75.303076-123.264751z m0 0" fill="#73DA8C" p-id="3061"></path><path d="M709.229213 742.06735v-61.730567c0-191.594207-155.311342-346.911562-346.897534-346.911562S15.436149 488.744579 15.436149 680.336783v81.605385c0 63.443914 51.428446 114.87236 114.864344 114.87236H843.968376c-74.41935 0-134.739162-60.329832-134.739163-134.747178z m0 0" fill="#FFC7A4" p-id="3062"></path><path d="M146.997104 712.251115c-58.59845-174.741292 53.738959-338.968047 53.738959-338.968047C90.566888 431.404587 15.436149 547.108571 15.436149 680.336783v81.605385c0 63.443914 51.428446 114.87236 114.864344 114.87236h186.498255c-61.948994-48.430591-129.464861-44.274474-169.801644-164.563413z m0 0" fill="#FFAA75" p-id="3063"></path><path d="M362.333683 794.81838c-31.100744 0-56.305973-25.205229-56.305973-56.305973v-40.939961a15.37002 15.37002 0 0 1 15.374028-15.372023h81.869902a15.364008 15.364008 0 0 1 15.366012 15.372023v40.939961c0 31.100744-25.205229 56.305973-56.303969 56.305973z m0 0" fill="#454545" p-id="3064"></path><path d="M234.043115 738.512407c0-26.417597-26.888517-47.833425-60.063311-47.833425-33.164775 0-60.053292 21.415828-60.053291 47.833425 0 26.411585 26.888517 47.827413 60.053291 47.827413 33.174795 0 60.063311-21.415828 60.063311-47.827413z m0 0M610.738849 738.512407c0-26.417597-26.888517-47.833425-60.053291-47.833425-33.174795 0-60.063311 21.415828-60.063311 47.833425 0 26.411585 26.888517 47.827413 60.063311 47.827413 33.164775 0 60.053292-21.415828 60.053291-47.827413z m0 0" fill="#FF83B4" p-id="3065"></path><path d="M391.184031 444.163507c0 19.437965-15.762787 35.202755-35.198747 35.202755-19.44598 0-35.208767-15.764791-35.208767-35.202755 0-19.443977 15.762787-35.208767 35.208767-35.208767 19.435961 0 35.200751 15.764791 35.200751 35.208767z m0 0M286.144877 538.161096c0 19.435961-15.756775 35.200751-35.200752 35.200751-19.44598 0-35.202755-15.764791-35.202755-35.200751 0-19.443977 15.756775-35.208767 35.202755-35.208767 19.443977 0 35.200751 15.764791 35.200752 35.208767z m0 0M464.900008 545.18281c0 19.443977-15.756775 35.200751-35.200752 35.200752-19.437965 0-35.202755-15.756775-35.202755-35.200752s15.764791-35.202755 35.202755-35.202755c19.443977 0 35.200751 15.756775 35.200752 35.202755z m0 0" fill="#FFAA75" p-id="3066"></path><path d="M508.923992 672.273033v24.948728c0 8.304219 6.723131 15.029354 15.029354 15.029354a15.029354 15.029354 0 0 0 15.029355-15.029354v-24.948728a15.029354 15.029354 0 0 0-15.029355-15.029354 15.029354 15.029354 0 0 0-15.029354 15.029354z m0 0M185.682661 672.273033v24.948728a15.029354 15.029354 0 0 0 15.029355 15.029354c8.306223 0 15.029354-6.725135 15.029354-15.029354v-24.948728a15.029354 15.029354 0 1 0-30.058709 0z m0 0M321.393722 667.171068c-16.758732 0-30.395366 13.63463-30.395366 30.401378v40.939961c0 39.33683 32.000501 71.335327 71.333323 71.335327s71.335327-32.000501 71.335327-71.335327v-40.939961c0-16.766748-13.636634-30.401378-30.395366-30.401378z m82.214575 30.401378v40.939961c0 22.764462-18.512157 41.284634-41.274614 41.284634s-41.276618-18.520172-41.276618-41.284634v-40.939961c0-0.186364 82.551233-0.186364 82.551232 0z m0 0" p-id="3067"></path><path d="M1016.86807 607.678873c-9.604759-22.027022-25.83045-39.873879-46.440704-51.428446 5.220196-53.197902-16.728673-88.805448-47.342466-109.113112-8.196008-5.430607-12.203836-15.293871-10.231984-25.117057 5.855436-29.056751-0.110215-58.536329-16.790795-83.022152a109.163209 109.163209 0 0 0-100.524336-47.218223c-9.314192 0.877714-18.081315-4.368532-22.347648-13.36811-14.857018-31.335202-43.875695-53.496485-77.166716-60.257691C684.188305 170.166356 640.603178 135.264188 590.19272 135.264188c-34.411209 0-66.920705 16.548321-87.358622 43.827601-48.548822-11.075632-99.382106 1.957824-137.135844 36.33697-11.646748 10.606716-29.016673 11.442348-41.306677 1.995899-28.515695-21.932838-64.109213-33.164775-100.211726-31.607734a15.03737 15.03737 0 0 0-14.37207 15.662591c0.360705 8.290192 7.366387 14.738787 15.664595 14.37207 29.04072-1.252446 57.672642 7.773182 80.593409 25.401613 23.844571 18.347836 57.432172 16.828869 79.867992-3.601034 35.18472-32.040579 84.493025-41.058192 128.689346-23.537972a123.567342 123.567342 0 0 1 70.832345 73.401362 63.53409 63.53409 0 0 0 66.395679 41.996023c47.342466-4.799374 92.328329 17.321832 117.401299 57.71272 17.424031 28.070826 22.834599 61.24562 15.249785 93.410443-6.528751 27.678059 7.168 56.390137 33.313064 69.822372 41.408877 21.277558 67.139131 63.383796 67.139132 109.894638 0 68.086982-55.38818 123.483178-123.475163 123.483178-3.733292 0-12.885166-1.524978-33.180806-10.965417-2.625127-9.833205-4.03989-92.532728-4.03989-92.532728 0-30.497566-3.805432-60.806763-11.302075-90.07593-2.060023-8.037699-10.24-12.899194-18.287718-10.833158a15.029354 15.029354 0 0 0-10.825143 18.295734c6.873425 26.832407 10.356227 54.628697 10.356227 82.613354v61.730567c0 48.87546 23.537973 92.360391 59.866928 119.717824H130.300493c-55.051523 0-99.83499-44.791483-99.83499-99.843006v-81.605385c0-182.997417 148.876775-331.882207 331.86818-331.882208 64.311609 0 126.683429 18.409957 180.374294 53.252008 52.328204 33.956321 93.943483 81.683538 120.329017 138.035601a15.033362 15.033362 0 0 0 19.993049 7.234129 15.023342 15.023342 0 0 0 7.232125-19.987037c-28.782215-61.44-74.144814-113.485652-131.194238-150.495937-58.574403-38.012243-126.60728-58.097472-196.736251-58.097472-89.831452 0-172.108149 32.908274-235.451867 87.286481a123.849894 123.849894 0 0 1-19.341777-71.333323c1.621166-42.16836 24.594035-80.236712 61.464047-101.832892 7.161988-4.18818 9.564681-13.400172 5.378505-20.56216-4.196196-7.163992-13.442254-9.620791-20.564164-5.37049-77.527421 46.230294-76.423264 131.029918-76.415249 133.228212C32.008517 353.558544 0 395.953346 0 444.163507c0 30.732023 13.125636 60.031249 35.60955 80.565354C13.057503 571.890975 0.406795 624.664047 0.406795 680.336783v81.605385c0 71.631906 58.269808 129.901714 129.893698 129.901715h723.030168c71.62389 0 129.893699-58.269808 129.893699-129.901715v-24.205276a108.351624 108.351624 0 0 0 35.170693-46.621056c10.646795-27.108947 10.105738-56.736814-1.526983-83.436963zM30.058708 444.163507c0-32.96238 20.650333-62.161409 50.598826-73.703953a153.285386 153.285386 0 0 0 23.97683 56.005385 364.403726 364.403726 0 0 0-54.239937 70.529754C37.479202 482.614607 30.058708 463.795851 30.058708 444.163507z m503.373151-254.677417C548.164634 174.300431 568.650646 165.322896 590.19272 165.322896c33.345127 0 62.574215 21.081174 73.924384 51.193989a109.006904 109.006904 0 0 0-65.40775 30.120829 153.539883 153.539883 0 0 0-65.277495-57.151624z m298.114255 334.232798c-13.825002-7.099867-21.141292-21.982935-17.784736-36.180665 9.432423-40.000125 2.701276-81.252697-18.967045-116.164884-31.178896-50.230106-87.162239-78.112564-145.973104-71.77218-26.080939 2.809487-35.569472-23.491883-35.819961-24.149167 14.975249-18.520172 37.487217-29.425472 61.520157-29.425471 30.401378 0 58.474207 17.770708 71.505659 45.260399 9.588728 20.243538 30.613793 32.471421 52.328204 30.419413 28.72811-2.701276 56.650646 10.402317 72.870325 34.214826 12.085605 17.746661 16.406043 39.108384 12.163757 60.16551-4.408611 21.862701 4.64908 43.881706 23.085088 56.109589 22.191342 14.71474 35.443225 39.3729 35.443225 65.964838 0 27.419554-14.42818 52.726982-37.096454 67.0209-13.283945-34.637652-38.926027-63.82065-73.275115-81.463108z m21.784547 338.066286s-69.878481 3.326497-106.544093-49.941542c57.211742 6.723131 107.578114-21.167342 135.703045-57.165652 34.433252 13.11762 70.678043-0.673315 70.678043-0.673315 3.779382 60.335843-44.783468 107.780509-99.836995 107.780509z m137.08775-181.660806c-14.480282 36.85398-53.769018 56.736814-91.248219 48.063875 20.876775-34.128658 15.123538-84.799624 13.768892-93.041722 21.103217-10.951389 37.847922-28.501667 48.039828-49.44858 12.406231 8.306223 22.223405 19.979022 28.335342 33.9964 8.424454 19.335765 8.815217 40.799687 1.104157 60.430027z m0 0" p-id="3068"></path></svg>